<svg xmlns="http://www.w3.org/2000/svg" viewBox="0 0 512 512">
  <rect width="512" height="512" rx="112" fill="#d97757"/>
  <g fill="#fdf8f1">
    <ellipse cx="170" cy="150" rx="72" ry="80"/>
    <ellipse cx="256" cy="118" rx="84" ry="94"/>
    <ellipse cx="342" cy="150" rx="72" ry="80"/>
    <path d="M120 195 L392 195 L392 290 L120 290 Z"/>
    <path d="M120 290 L392 290 L392 364 Q392 372 384 372 L128 372 Q120 372 120 364 Z"/>
  </g>
  <rect x="120" y="288" width="272" height="6" fill="#3a2f2a" opacity="0.1"/>
  <g fill="#d97757">
    <rect x="180" y="170" width="152" height="28" rx="4"/>
    <polygon points="332,198 294,198 180,260 218,260"/>
    <rect x="180" y="260" width="152" height="28" rx="4"/>
  </g>
</svg>
